<svg version="1.0" xmlns="http://www.w3.org/2000/svg"
 width="682.000000pt" height="369.000000pt" viewBox="0 0 682.000000 369.000000"
 preserveAspectRatio="xMidYMid meet">

<g transform="translate(0.000000,369.000000) scale(0.100000,-0.100000)"
fill="#000000" stroke="none">
<path d="M5866 3484 c-297 -54 -487 -259 -487 -528 0 -157 47 -264 162 -370
81 -76 172 -127 344 -196 179 -72 245 -109 311 -175 71 -71 97 -142 92 -250
-6 -125 -56 -208 -160 -269 -147 -86 -432 -73 -647 29 -41 20 -78 32 -81 28
-4 -4 -21 -52 -38 -105 l-30 -98 32 -19 c53 -33 209 -80 318 -97 285 -44 567
26 720 179 132 133 185 323 143 520 -20 95 -66 175 -144 250 -83 80 -173 133
-350 207 -195 81 -257 116 -323 181 -43 43 -60 68 -72 109 -46 155 19 299 166
365 55 25 78 29 184 33 133 5 235 -14 342 -63 30 -14 57 -23 59 -21 3 2 20 52
38 110 l33 106 -35 15 c-159 67 -399 91 -577 59z"/>
<path d="M535 3470 c-55 -5 -137 -14 -182 -21 l-83 -11 0 -993 0 -992 63 -7
c142 -14 494 -18 602 -7 219 24 393 74 531 152 102 58 229 179 294 279 223
348 227 898 8 1217 -132 195 -340 316 -626 369 -103 19 -456 27 -607 14z m585
-229 c269 -68 450 -246 510 -503 37 -163 35 -358 -6 -528 -22 -88 -81 -212
-138 -287 -76 -100 -221 -197 -356 -237 -131 -40 -355 -56 -532 -39 l-68 6 0
798 0 798 58 6 c31 4 62 8 67 11 6 2 93 2 195 0 146 -3 203 -8 270 -25z"/>
<path d="M2270 2460 l0 -1010 570 0 570 0 0 110 0 110 -440 0 -440 0 0 365 0
365 395 0 396 0 -3 108 -3 107 -392 3 -393 2 0 315 0 315 415 0 415 0 0 110 0
110 -545 0 -545 0 0 -1010z"/>
<path d="M3554 3453 c4 -10 152 -463 330 -1008 l324 -990 144 -3 145 -3 52
143 c28 79 190 532 360 1008 l309 865 -135 3 c-75 1 -138 0 -141 -2 -7 -7
-320 -923 -421 -1231 -48 -148 -103 -326 -122 -395 -29 -108 -34 -121 -41 -95
-62 241 -136 490 -312 1050 l-212 670 -143 3 c-133 2 -142 1 -137 -15z"/>
<path d="M1440 1154 c-103 -28 -190 -92 -251 -186 -52 -81 -73 -165 -67 -276
4 -79 9 -100 41 -165 57 -116 159 -200 282 -231 326 -85 624 197 554 526 -52
245 -310 399 -559 332z m268 -99 c72 -32 153 -112 183 -180 26 -59 35 -164 20
-237 -46 -220 -300 -340 -506 -239 -126 62 -197 177 -197 321 0 148 73 270
199 334 87 44 204 45 301 1z"/>
<path d="M3100 1090 c0 -79 0 -80 25 -80 20 0 25 -5 25 -25 0 -14 -7 -42 -15
-62 -19 -46 -19 -50 5 -63 18 -10 23 -6 42 37 16 36 22 75 26 161 l5 112 -57
0 -56 0 0 -80z"/>
<path d="M4591 1154 c-80 -21 -145 -60 -206 -125 -236 -248 -109 -668 223
-738 117 -24 247 -7 345 47 47 25 137 105 137 120 0 4 -15 17 -32 29 l-32 23
-46 -45 c-25 -24 -72 -57 -105 -72 -53 -25 -72 -28 -155 -28 -81 0 -103 4
-152 27 -187 87 -265 299 -180 492 40 88 128 160 236 191 123 36 277 -5 364
-95 l41 -41 32 29 33 29 -46 46 c-108 108 -298 154 -457 111z"/>
<path d="M270 725 l0 -425 178 0 c259 0 332 19 422 109 91 91 133 232 111 377
-22 147 -97 256 -215 314 -77 38 -161 50 -348 50 l-148 0 0 -425z m327 334
c141 -20 218 -73 272 -189 22 -47 26 -69 26 -155 0 -124 -23 -183 -96 -249
-70 -63 -117 -76 -291 -83 l-148 -6 0 347 0 346 79 0 c44 0 115 -5 158 -11z"/>
<path d="M2180 725 l0 -425 45 0 45 0 2 319 3 319 275 -316 c151 -174 281
-317 288 -320 9 -3 12 86 12 422 l0 426 -45 0 -45 0 -2 -319 -3 -318 -275 318
c-151 175 -281 318 -287 319 -10 0 -13 -91 -13 -425z"/>
<path d="M3390 1110 l0 -40 95 0 95 0 0 -385 0 -385 45 0 45 0 0 385 0 385 90
0 90 0 0 40 0 40 -230 0 -230 0 0 -40z"/>
<path d="M5280 726 l0 -426 40 0 40 0 0 201 0 200 27 -3 c23 -2 54 -38 176
-198 l148 -195 56 -3 55 -3 -128 168 c-70 92 -139 182 -152 198 l-25 30 59 7
c87 11 139 34 178 79 72 84 73 206 3 286 -58 66 -98 77 -299 81 l-178 4 0
-426z m367 321 c94 -50 95 -187 2 -242 -28 -17 -56 -21 -161 -24 l-128 -3 0
147 0 147 128 -4 c96 -3 135 -8 159 -21z"/>
<path d="M5933 1143 c2 -5 63 -105 135 -224 l132 -216 0 -201 0 -202 40 0 40
0 0 200 0 200 131 217 c73 120 134 221 136 226 2 4 -18 7 -45 7 l-49 0 -102
-170 c-56 -93 -105 -170 -109 -170 -4 0 -55 76 -112 170 l-105 170 -48 0 c-27
0 -46 -3 -44 -7z"/>
</g>
</svg>